<svg width="1017" height="598" viewBox="0 0 1017 598" fill="none" xmlns="http://www.w3.org/2000/svg">
<path d="M56.1389 432.513C82.4796 432.513 108.879 432.513 135.22 432.513C140.629 452.986 145.98 473.459 151.33 493.814C139.042 493.814 126.753 493.814 114.465 493.814C115.582 499.049 116.699 504.285 117.816 509.521C126.577 509.521 135.338 509.521 144.098 509.521C145.333 515.58 146.509 521.64 147.744 527.699C139.042 527.699 130.399 527.699 121.697 527.699C122.638 532.17 123.637 536.641 124.578 541.112C136.513 541.112 148.508 541.112 160.444 541.112C162.678 559.291 164.853 577.469 167.088 595.529H94.9444C82.1268 541.642 69.1329 487.284 56.0801 432.455L56.1389 432.513Z" fill="#5719C5"/>
<path d="M255.87 595.529C233.88 595.529 211.891 595.529 189.901 595.529C173.967 541.642 157.857 487.284 141.629 432.455C157.445 432.455 173.203 432.455 189.019 432.455C196.839 471.87 204.6 510.992 212.302 549.878C214.478 549.878 216.653 549.878 218.828 549.878C213.772 510.992 208.657 471.811 203.483 432.455C219.358 432.455 235.174 432.455 251.049 432.455C252.695 487.284 254.283 541.642 255.87 595.529V595.529Z" fill="#5719C5"/>
<path d="M307.61 430.337C349.826 429.807 366.524 475.635 370.052 516.992C373.52 558.055 363.995 596.471 325.131 597C286.267 597.53 268.804 556.29 263.336 517.639C257.221 474.517 265.453 430.866 307.669 430.337H307.61ZM319.545 544.524C330.776 544.289 329.07 526.934 328.012 517.227C327.013 507.521 325.308 489.342 313.842 489.578C302.318 489.813 304.082 507.638 305.258 517.404C306.434 527.17 308.315 544.701 319.545 544.465V544.524Z" fill="#5719C5"/>
<path d="M370.934 432.513C386.044 432.513 401.096 432.513 416.207 432.513C417.794 468.929 419.441 505.109 421.028 541.112C428.966 541.112 436.903 541.112 444.841 541.112C444.076 559.291 443.371 577.469 442.606 595.529C422.439 595.529 402.331 595.529 382.164 595.529C378.46 541.642 374.697 487.284 370.934 432.455V432.513Z" fill="#5719C5"/>
<path d="M445.781 433.984C460.598 431.513 475.591 431.69 490.466 433.925C490.172 448.338 490.702 527.758 490.702 530.876C490.878 548.584 490.584 549.819 497.11 549.819C503.637 549.819 503.108 548.348 503.343 530.876C503.343 527.817 503.754 448.338 503.46 433.925C518.336 431.69 533.329 431.513 548.146 433.984C547.793 446.868 545.676 528.052 545.559 529.876C542.619 578.234 533.153 597.118 497.287 597C461.421 596.882 452.072 577.528 448.545 529.876C448.427 528.052 446.252 446.926 445.84 433.984H445.781Z" fill="#5719C5"/>
<path d="M558.848 432.513C590.48 432.513 622.171 432.513 653.804 432.513C653.451 452.986 653.157 473.458 652.804 493.813C643.456 493.813 634.107 493.813 624.7 493.813C622.289 527.934 619.937 561.82 617.526 595.588C603.709 595.588 589.892 595.588 576.075 595.588C577.604 561.879 579.191 527.934 580.72 493.813C571.371 493.813 562.023 493.813 552.615 493.813C554.673 473.458 556.672 453.045 558.73 432.513H558.848Z" fill="#5719C5"/>
<path d="M664.505 432.513C679.616 432.513 694.668 432.513 709.778 432.513C703.546 487.342 697.372 541.7 691.199 595.588C677.44 595.588 663.682 595.588 649.924 595.588C654.745 541.7 659.625 487.342 664.505 432.513V432.513Z" fill="#5719C5"/>
<path d="M773.16 430.396C815.552 430.807 820.844 476.753 813.553 517.463C806.321 557.879 787.506 597.471 748.466 597.059C709.425 596.647 702.075 556.114 706.779 517.345C712.012 474.047 730.768 429.984 773.16 430.454V430.396ZM756.168 544.583C767.398 544.936 769.926 527.17 771.514 517.581C773.101 507.991 775.865 490.048 764.341 489.695C752.816 489.342 750.229 507.58 748.701 517.286C747.231 526.993 744.82 544.289 756.109 544.642L756.168 544.583Z" fill="#5719C5"/>
<path d="M835.66 432.513C850.771 432.513 865.823 432.513 880.934 432.513C880.581 461.869 880.169 491.107 879.816 520.169C881.169 520.169 882.521 520.169 883.873 520.169C887.048 491.107 890.165 461.869 893.398 432.513C909.215 432.513 924.972 432.513 940.788 432.513C927.735 487.342 914.741 541.7 901.924 595.588C888.166 595.588 874.407 595.588 860.649 595.588C860.649 568.997 860.766 542.23 860.766 515.404C859.414 515.404 858.062 515.404 856.71 515.404C854.24 542.23 851.771 568.997 849.301 595.588C834.896 595.588 820.491 595.588 806.086 595.588C815.905 541.7 825.783 487.342 835.719 432.513H835.66Z" fill="#5719C5"/>
<path d="M163.561 111.482C183.845 110.364 223.239 112.599 240.349 111.658C297.675 108.481 337.186 157.427 341.655 208.021C347.417 273.38 321.899 276.321 284.681 291.558C284.446 293.5 285.269 297.794 285.445 300.618C299.556 300.618 313.55 300.618 327.661 300.618C338.774 335.151 349.768 369.448 360.763 403.628C337.656 403.628 314.608 403.628 291.501 403.628C280.448 373.213 269.276 342.622 258.105 311.913C256.047 311.913 253.989 311.913 251.931 311.913C258.987 342.622 266.043 373.213 273.098 403.628C251.343 403.628 229.589 403.628 207.775 403.628C193.37 307.736 177.73 210.138 163.619 111.482H163.561ZM253.401 263.673C255.459 263.908 259.399 264.261 261.221 264.085C274.215 262.85 280.271 255.849 278.566 240.2C276.861 224.493 268.982 217.433 255.694 216.257C253.872 216.08 249.874 216.433 247.816 216.669C249.638 232.376 251.52 247.966 253.46 263.614L253.401 263.673Z" fill="#5719C5"/>
<path d="M445.958 403.687C445.135 388.685 444.311 373.625 443.43 358.506C437.491 358.506 431.553 358.506 425.555 358.506C425.732 373.625 425.849 388.685 426.026 403.687C404.271 403.687 382.458 403.687 360.703 403.687C363.408 307.736 366.23 210.315 368.993 111.423H483.999C493.289 210.315 502.461 307.736 511.457 403.687C489.585 403.687 467.771 403.687 445.899 403.687H445.958ZM441.783 326.621C439.608 287.205 437.374 247.554 435.139 207.668H424.556C424.909 247.554 425.32 287.205 425.673 326.621H441.783Z" fill="#5719C5"/>
<path d="M520.278 111.423H592.245C598.771 165.487 605.239 219.081 611.647 272.262H617.939C615.998 219.081 614.058 165.487 612.059 111.423H687.377C678.852 210.315 670.502 307.736 662.212 403.687C641.398 403.687 620.643 403.687 599.829 403.687C593.597 357.329 587.247 310.678 580.897 263.673C578.78 263.673 576.664 263.673 574.547 263.673C577.252 310.678 579.897 357.329 582.602 403.687C560.847 403.687 539.034 403.687 517.279 403.687C518.22 307.736 519.22 210.315 520.16 111.423H520.278Z" fill="#5719C5"/>
<path d="M788.271 106.657C854.946 108.599 858.827 181.312 854.358 245.024C831.545 248.966 808.85 252.025 786.155 255.319C786.86 242.377 790.211 216.668 773.69 217.021C754.875 217.492 751.523 250.672 749.289 266.967C747.055 283.204 742.998 313.443 760.46 315.737C771.514 317.208 774.63 304.618 778.923 295.97C775.806 295.735 772.866 295.97 769.809 295.853C770.75 288.734 771.749 281.616 772.69 274.498C798.325 274.498 823.902 274.498 849.537 274.498C842.07 317.855 834.603 360.918 827.253 403.687C809.967 403.687 792.74 403.687 775.454 403.687C775.571 388.921 775.748 374.154 775.865 359.329C774.513 359.624 772.514 358.8 771.632 359.8C758.167 381.979 755.463 413.864 721.479 406.393C677.205 396.627 676.441 319.973 684.025 264.32C692.492 202.079 715.187 104.657 788.271 106.775V106.657Z" fill="#5719C5"/>
<path d="M891.223 111.423H1016.99C1010.17 149.427 1003.41 187.195 996.645 224.787H939.142C937.143 234.258 935.144 243.73 933.145 253.143C946.727 253.143 960.367 253.143 973.949 253.143C971.421 263.967 968.952 274.851 966.424 285.675H926.266C924.619 293.617 922.914 301.5 921.268 309.384C939.671 309.384 958.016 309.384 976.419 309.384C966.894 340.975 957.428 372.39 947.961 403.687C911.625 403.687 875.289 403.687 838.953 403.687C856.122 307.736 873.525 210.315 891.223 111.423V111.423Z" fill="#5719C5"/>
<path d="M92.1809 111.482C96.7083 104.246 103.881 92.8327 105.528 85.3613C112.113 55.8879 109.232 29.4735 104.587 0C90.1231 6.88303 75.2476 12.766 67.0161 30.0618C58.7846 47.3576 59.1374 71.007 58.373 90.656C55.198 79.1843 48.2601 63.5945 42.7332 54.9466C35.1485 43.1219 28.9749 39.5333 19.5675 32.2973C20.861 50.2991 24.2712 65.477 30.092 82.7729C32.6203 90.303 38.0883 100.598 42.7332 107.187C-11.183 136.366 -4.53902 205.903 11.336 267.85C27.0934 329.209 58.3142 407.746 121.991 405.687C185.726 403.628 187.313 332.621 176.612 265.379C167.793 209.785 143.275 138.425 92.1221 111.482H92.1809Z" fill="#5719C5"/>
</svg>
