<svg width="48" height="48" viewBox="0 0 48 48" fill="none" xmlns="http://www.w3.org/2000/svg">
<path d="M16.125 38.6562C18.8958 40.1146 21.5208 40.8438 24 40.8438C26.4792 40.8438 29.0677 40.1146 31.7656 38.6562C34.5365 37.1979 36.6146 35.4115 38 33.2969C37.9271 31.2552 36.2865 29.5417 33.0781 28.1562C29.8698 26.7708 26.8438 26.0781 24 26.0781C21.1562 26.0781 18.1302 26.7708 14.9219 28.1562C11.7135 29.4688 10.0729 31.1823 10 33.2969C11.3854 35.4115 13.4271 37.1979 16.125 38.6562ZM28.9219 9.78125C27.5365 8.39583 25.8958 7.70312 24 7.70312C22.1042 7.70312 20.4635 8.39583 19.0781 9.78125C17.6927 11.1667 17 12.8073 17 14.7031C17 16.599 17.6927 18.2396 19.0781 19.625C20.4635 21.0104 22.1042 21.7031 24 21.7031C25.8958 21.7031 27.5365 21.0104 28.9219 19.625C30.3073 18.2396 31 16.599 31 14.7031C31 12.8073 30.3073 11.1667 28.9219 9.78125ZM7.48438 7.59375C12.0781 3 17.5833 0.703125 24 0.703125C30.4167 0.703125 35.8854 3 40.4062 7.59375C45 12.1146 47.2969 17.5833 47.2969 24C47.2969 30.4167 45 35.9219 40.4062 40.5156C35.8854 45.0365 30.4167 47.2969 24 47.2969C17.5833 47.2969 12.0781 45.0365 7.48438 40.5156C2.96354 35.9219 0.703125 30.4167 0.703125 24C0.703125 17.5833 2.96354 12.1146 7.48438 7.59375Z" fill="black"/>
</svg>
