<svg width="158" height="117" viewBox="0 0 158 117" fill="none" xmlns="http://www.w3.org/2000/svg">
<path d="M49.3837 79.1075C53.3851 78.7001 55.3712 78.4098 59.3001 77.6617C57.2233 69.3585 55.0722 61.0788 52.8468 52.8152C50.3297 53.0406 49.0684 53.1361 46.5368 53.2911C46.4099 52.3772 46.3483 51.9211 46.2215 51.0071C54.4615 48.9899 54.5231 39.3618 54.0574 32.7351C53.3959 23.298 48.1895 12.4818 37.2021 12.298C33.1048 12.3034 29.0056 12.307 24.9082 12.3052C28.9983 34.7775 33.0885 57.2481 37.1804 79.7204C41.0186 79.7222 42.9287 79.6483 46.7198 79.349C45.078 71.6497 43.4053 63.9559 41.7055 56.2692C42.077 56.2548 42.2618 56.2458 42.6315 56.2295C44.942 63.8387 47.1928 71.4641 49.3837 79.1093V79.1075ZM41.0658 44.8491C40.4279 40.6345 40.1089 38.5271 39.471 34.3124C39.9114 34.1971 40.4079 34.1862 40.6979 34.179C42.8091 34.1267 44.1012 35.9601 44.5742 39.3852C45.0616 42.9149 44.3241 44.8365 42.2817 44.9122C42.0027 44.9231 41.5224 44.9393 41.0658 44.851V44.8491Z" fill="white"/>
<path d="M74.2357 12.1754C68.2554 12.2078 62.2752 12.2331 56.2949 12.2529C56.8005 34.1051 57.6124 55.9429 58.7033 77.7735C62.4147 77.0866 64.2523 76.6684 67.8875 75.6806C67.6864 71.9832 67.4889 68.2877 67.295 64.5904C68.3152 64.3705 68.8226 64.2551 69.8375 64.0171C70.1093 67.6424 70.3793 71.2676 70.6439 74.8928C74.2665 73.8076 75.9917 73.0865 79.6795 71.8354C78.1428 51.9229 76.3251 32.0374 74.2357 12.1736V12.1754ZM66.9615 57.0624C66.523 48.4113 66.0971 39.7602 65.6839 31.109C66.3272 31.0622 66.648 31.0387 67.2895 30.9901C67.9691 39.533 68.6378 48.0778 69.2938 56.6243C68.3623 56.8046 67.8966 56.8929 66.9633 57.0624H66.9615Z" fill="white"/>
<path d="M79.8418 12.1447C83.584 12.1249 87.328 12.1087 91.0702 12.0943C92.2137 21.7044 93.2466 31.32 94.1672 40.9535C94.5496 40.9139 94.7399 40.8958 95.1222 40.858C94.8685 31.2641 94.5496 21.6738 94.1654 12.0834C98.087 12.069 102.007 12.0582 105.928 12.0492L101.369 66.6419C97.7155 67.1737 95.8924 67.5072 92.2771 68.313C91.4725 58.7911 90.5537 49.2856 89.5244 39.7854C89.1402 39.8286 88.9499 39.8503 88.5657 39.8935C89.0387 49.5578 89.4464 59.2238 89.7908 68.8934C86.0214 69.8164 84.1512 70.3518 80.4688 71.5722C80.2586 51.7643 80.0502 31.9545 79.8418 12.1465V12.1447Z" fill="white"/>
<path d="M122.201 10.9441C133.91 11.137 132.701 26.6401 131.78 34.6639C127.57 35.3092 125.472 35.6572 121.302 36.4215C121.828 31.8589 121.395 29.4541 119.609 29.4739C117.574 29.4974 116.364 32.7639 115.601 38.6767C114.827 44.6724 115.144 47.8866 117.042 47.8379C118.241 47.8073 119.169 46.4697 119.947 43.8919C119.397 43.8991 119.122 43.9027 118.571 43.9117C118.801 42.3163 118.915 41.5195 119.144 39.9259C123.029 39.8574 126.929 39.8773 130.812 39.9908L125.968 65.5422C122.967 65.3745 121.456 65.3385 118.426 65.3619C118.653 61.7151 118.76 59.8925 118.959 56.2457C118.691 56.2493 118.555 56.2511 118.287 56.2547C117.444 60.1918 114.972 66.4904 110.706 66.6616C102.968 66.9699 105.161 43.5241 105.563 39.1201C106.417 29.7696 109.086 10.7278 122.203 10.9441H122.201Z" fill="white"/>
<path d="M138.377 12.0276C144.918 12.0366 151.46 12.051 158 12.0708C156.595 18.6903 155.171 25.3044 153.73 31.9166C150.264 31.6769 148.522 31.5759 145.026 31.4083C144.537 33.4796 144.292 34.5161 143.801 36.5892C146.26 36.7388 147.487 36.8254 149.928 37.0237C149.283 39.5114 148.959 40.7552 148.314 43.2411C145.941 42.996 144.749 42.8896 142.355 42.7021C141.922 44.5373 141.704 45.453 141.271 47.2882C144.53 47.5838 146.148 47.7641 149.357 48.1895C147.293 54.7387 145.246 61.2933 143.214 67.8515C138.133 66.75 132.97 66.0253 127.783 65.6558C131.313 47.7785 134.844 29.903 138.375 12.0258L138.377 12.0276Z" fill="white"/>
<path d="M37.0904 111.271C37.6594 114.328 35.5591 116.998 32.5726 116.998C30.1913 116.998 25.5612 116.438 23.1419 115.854C22.0491 111.781 21.5018 109.746 20.4073 105.674C21.5272 105.755 23.247 105.953 24.3669 106.023C22.4732 98.5891 20.5794 91.153 18.6875 83.7188C23.1727 84.4542 27.6996 84.9536 32.2391 85.2042C33.8574 93.8931 35.4757 102.582 37.0922 111.271H37.0904Z" fill="white"/>
<path d="M35.0253 85.3267C39.4669 85.3844 43.7763 85.287 48.2108 85.0256C48.74 91.4594 49.405 97.8842 50.0266 104.309C50.2441 106.553 50.7696 107.228 52.0563 107.184C53.2505 107.145 53.7018 106.433 53.5296 104.161C53.0367 97.6625 52.6036 91.153 51.9983 84.6633C56.3457 84.09 60.5283 83.378 64.8196 82.4802C64.9211 89.3304 64.9591 96.2474 65.1222 103.033C65.3216 111.314 61.6609 117.034 52.9008 116.998C44.7966 116.964 39.5376 112.113 38.2437 104.185C37.2234 97.9365 36.0963 91.6126 35.0234 85.3267H35.0253Z" fill="white"/>
<path d="M67.5605 81.8133C71.8283 80.6217 75.9655 79.2913 80.1571 77.8582C79.6769 90.6663 79.1967 103.474 78.7164 116.282C75.0413 116.31 71.3643 116.335 67.6892 116.355C67.6457 104.841 67.6022 93.327 67.5605 81.8133Z" fill="white"/>
<path d="M98.4296 72.6557C110.086 70.8205 113.324 82.4569 111.834 91.8147C107.703 92.3176 103.62 92.8981 99.5115 93.5633C99.8993 89.3396 99.2052 87.1998 96.9273 87.4594C94.5008 87.7352 93.3391 90.4302 92.926 95.0775C92.5092 99.7898 93.1615 102.27 95.4377 102.131C97.48 102.007 98.6525 99.8204 99.2578 95.7806C103.237 95.4309 107.253 95.2055 111.245 95.11C109.712 104.116 104.691 116.993 93.9299 117C83.6693 117.007 80.7752 105.09 81.0398 96.7036C81.3732 86.1308 86.8787 74.4746 98.4296 72.6557Z" fill="white"/>
<path d="M136.547 89.2079L136.54 89.2043C132.905 88.6743 130.853 88.449 126.926 88.148C126.558 89.7956 126.373 90.6194 126.006 92.2725C128.947 92.4708 130.411 92.6006 133.311 92.9215C132.827 94.8179 132.582 95.7679 132.098 97.659C129.246 97.3994 127.807 97.2966 124.92 97.1362C124.594 98.5928 124.433 99.3264 124.106 100.783C128.061 100.967 130.03 101.097 133.932 101.436C132.234 106.353 130.561 111.282 128.916 116.218C122.488 116.187 116.057 116.176 109.627 116.176C112.142 101.463 114.658 86.7491 117.171 72.0355C124.719 72.1455 133.457 72.7566 141.116 74.4692C141.127 74.4692 141.139 74.4692 141.15 74.4764L136.549 89.2097L136.547 89.2079Z" fill="white"/>
<path d="M29.2481 45.8533C27.657 37.3157 24.0525 17.268 13.6415 12.1502C15.74 11.9735 18.9313 11.3462 21.4049 9.28209C25.4334 5.91827 26.0224 0.0198695 26.0224 0.0198695C26.0224 0.0198695 20.0802 -0.427197 16.0535 2.93302C14.0256 4.62574 12.8695 6.96203 12.2225 8.86387C12.2805 7.93728 12.2044 6.91516 11.8419 5.92368C10.7492 2.93482 7.48361 1.37369 7.48361 1.37369C7.48361 1.37369 5.99036 4.65819 7.08311 7.64525C7.62134 9.11624 8.68328 10.2375 9.62563 11.0019C9.31393 10.9712 9.00042 10.9478 8.67785 10.9424C-5.82335 10.6611 1.82412 37.9575 3.61457 44.6365C6.10272 53.9221 12.1699 78.7217 24.3189 80.3009C36.158 81.8386 30.1306 50.5853 29.2499 45.8515L29.2481 45.8533Z" fill="white"/>
</svg>
